<svg width="259" height="206" viewBox="0 0 259 206" fill="none" xmlns="http://www.w3.org/2000/svg">
<g clip-path="url(#clip0_11_410)">
<rect width="375" height="812" transform="translate(-64 -239)" fill="#EEEEEE"/>
<g clip-path="url(#clip1_11_410)">
<g opacity="0.1">
<path opacity="0.1" d="M185.733 132.034C185.733 132.034 172.383 130.3 182.339 151.907C182.339 151.907 191.412 148.019 191.774 139.249C191.847 137.542 191.292 135.868 190.214 134.543C189.135 133.219 187.608 132.335 185.922 132.061L185.733 132.034Z" fill="#6C63FF"/>
<path opacity="0.1" d="M185.929 132.002C185.929 132.002 188.951 144.049 182.349 151.908" stroke="#535461" stroke-width="0.493209" stroke-miterlimit="10"/>
<path opacity="0.1" d="M182.169 153.021C182.169 153.021 186.975 141.175 195.951 136.781C199.731 134.962 202.818 131.965 204.748 128.241C205.65 126.468 206.388 124.615 206.952 122.707" stroke="#535461" stroke-width="0.986419" stroke-miterlimit="10"/>
<path opacity="0.1" d="M212.592 119.906C211.657 121.083 206.814 122.804 206.814 122.804C206.814 122.804 207.397 117.691 208.333 116.523C208.546 116.218 208.82 115.96 209.137 115.765C209.454 115.57 209.807 115.442 210.175 115.389C210.544 115.335 210.919 115.358 211.278 115.455C211.637 115.552 211.973 115.721 212.264 115.953C212.555 116.185 212.796 116.473 212.972 116.801C213.147 117.13 213.254 117.49 213.284 117.861C213.315 118.232 213.27 118.605 213.151 118.958C213.033 119.31 212.843 119.635 212.594 119.912L212.592 119.906Z" fill="#6C63FF"/>
<path opacity="0.1" d="M210.93 129.222C209.505 129.7 204.508 128.509 204.508 128.509C204.508 128.509 207.772 124.541 209.197 124.062C209.542 123.921 209.913 123.851 210.286 123.859C210.659 123.866 211.026 123.95 211.365 124.105C211.704 124.26 212.008 124.483 212.258 124.761C212.507 125.038 212.698 125.363 212.816 125.717C212.935 126.071 212.98 126.445 212.949 126.816C212.917 127.188 212.809 127.549 212.633 127.878C212.456 128.206 212.214 128.495 211.921 128.726C211.628 128.957 211.291 129.126 210.93 129.222Z" fill="#6C63FF"/>
<path opacity="0.1" d="M201.921 140.234C200.45 139.929 196.735 136.377 196.735 136.377C196.735 136.377 201.556 134.599 203.028 134.904C203.695 135.09 204.266 135.522 204.626 136.113C204.985 136.704 205.107 137.409 204.966 138.087C204.826 138.764 204.433 139.362 203.867 139.761C203.302 140.159 202.606 140.328 201.921 140.233V140.234Z" fill="#6C63FF"/>
<path opacity="0.1" d="M193.228 147.032C191.726 146.979 187.465 144.107 187.465 144.107C187.465 144.107 191.917 141.537 193.418 141.591C194.107 141.661 194.743 141.99 195.198 142.512C195.653 143.033 195.892 143.708 195.868 144.4C195.844 145.091 195.557 145.748 195.067 146.236C194.577 146.725 193.919 147.008 193.228 147.03V147.032Z" fill="#6C63FF"/>
<path opacity="0.1" d="M199.855 125.173C200.047 126.665 203.301 130.64 203.301 130.64C203.301 130.64 205.444 125.969 205.253 124.478C205.229 124.106 205.13 123.742 204.96 123.41C204.791 123.077 204.555 122.783 204.267 122.546C203.979 122.308 203.646 122.132 203.287 122.029C202.929 121.925 202.553 121.897 202.183 121.944C201.812 121.992 201.456 122.115 201.136 122.306C200.815 122.497 200.537 122.752 200.319 123.054C200.101 123.357 199.947 123.701 199.867 124.066C199.787 124.43 199.783 124.807 199.855 125.173Z" fill="#6C63FF"/>
<path opacity="0.1" d="M189.788 133.26C190.417 134.623 194.712 137.444 194.712 137.444C194.712 137.444 195.36 132.346 194.731 130.982C194.597 130.634 194.393 130.317 194.132 130.051C193.87 129.785 193.557 129.576 193.212 129.435C192.866 129.295 192.496 129.227 192.123 129.236C191.75 129.245 191.383 129.33 191.044 129.486C190.705 129.642 190.402 129.866 190.154 130.144C189.905 130.422 189.716 130.747 189.598 131.101C189.48 131.455 189.437 131.829 189.469 132.201C189.502 132.572 189.61 132.933 189.788 133.261V133.26Z" fill="#6C63FF"/>
<path opacity="0.1" d="M181.081 142.454C181.47 143.906 185.228 147.41 185.228 147.41C185.228 147.41 186.728 142.496 186.338 141.044C186.265 140.678 186.118 140.33 185.906 140.023C185.694 139.716 185.421 139.456 185.104 139.259C184.787 139.061 184.432 138.931 184.063 138.876C183.694 138.822 183.317 138.843 182.956 138.94C182.596 139.037 182.259 139.206 181.967 139.439C181.674 139.671 181.433 139.961 181.257 140.29C181.081 140.619 180.975 140.981 180.945 141.354C180.914 141.726 180.961 142.1 181.081 142.454Z" fill="#6C63FF"/>
<path opacity="0.25" d="M212.592 119.906C211.657 121.083 206.814 122.804 206.814 122.804C206.814 122.804 207.397 117.691 208.333 116.523C208.546 116.218 208.82 115.96 209.137 115.765C209.454 115.57 209.807 115.442 210.175 115.389C210.544 115.335 210.919 115.358 211.278 115.455C211.637 115.552 211.973 115.721 212.264 115.953C212.555 116.185 212.796 116.473 212.972 116.801C213.147 117.13 213.254 117.49 213.284 117.861C213.315 118.232 213.27 118.605 213.151 118.958C213.033 119.31 212.843 119.635 212.594 119.912L212.592 119.906Z" fill="black"/>
<path opacity="0.25" d="M210.93 129.222C209.505 129.7 204.508 128.509 204.508 128.509C204.508 128.509 207.772 124.541 209.197 124.062C209.542 123.921 209.913 123.851 210.286 123.859C210.659 123.866 211.026 123.95 211.365 124.105C211.704 124.26 212.008 124.483 212.258 124.761C212.507 125.038 212.698 125.363 212.816 125.717C212.935 126.071 212.98 126.445 212.949 126.816C212.917 127.188 212.809 127.549 212.633 127.878C212.456 128.206 212.214 128.495 211.921 128.726C211.628 128.957 211.291 129.126 210.93 129.222Z" fill="black"/>
<path opacity="0.25" d="M201.921 140.234C200.45 139.929 196.735 136.377 196.735 136.377C196.735 136.377 201.556 134.599 203.028 134.904C203.695 135.09 204.266 135.522 204.626 136.113C204.985 136.704 205.107 137.409 204.966 138.087C204.826 138.764 204.433 139.362 203.867 139.761C203.302 140.159 202.606 140.328 201.921 140.233V140.234Z" fill="black"/>
<path opacity="0.25" d="M193.228 147.032C191.726 146.979 187.465 144.107 187.465 144.107C187.465 144.107 191.917 141.537 193.418 141.591C194.107 141.661 194.743 141.99 195.198 142.512C195.653 143.033 195.892 143.708 195.868 144.4C195.844 145.091 195.557 145.748 195.067 146.236C194.577 146.725 193.919 147.008 193.228 147.03V147.032Z" fill="black"/>
<path opacity="0.25" d="M199.855 125.173C200.047 126.665 203.301 130.64 203.301 130.64C203.301 130.64 205.444 125.969 205.253 124.478C205.229 124.106 205.13 123.742 204.96 123.41C204.791 123.077 204.555 122.783 204.267 122.546C203.979 122.308 203.646 122.132 203.287 122.029C202.929 121.925 202.553 121.897 202.183 121.944C201.812 121.992 201.456 122.115 201.136 122.306C200.815 122.497 200.537 122.752 200.319 123.054C200.101 123.357 199.947 123.701 199.867 124.066C199.787 124.43 199.783 124.807 199.855 125.173Z" fill="black"/>
<path opacity="0.25" d="M189.788 133.26C190.417 134.623 194.712 137.444 194.712 137.444C194.712 137.444 195.36 132.346 194.731 130.982C194.597 130.634 194.393 130.317 194.132 130.051C193.87 129.785 193.557 129.576 193.212 129.435C192.866 129.295 192.496 129.227 192.123 129.236C191.75 129.245 191.383 129.33 191.044 129.486C190.705 129.642 190.402 129.866 190.154 130.144C189.905 130.422 189.716 130.747 189.598 131.101C189.48 131.455 189.437 131.829 189.469 132.201C189.502 132.572 189.61 132.933 189.788 133.261V133.26Z" fill="black"/>
<path opacity="0.25" d="M181.081 142.454C181.47 143.906 185.228 147.41 185.228 147.41C185.228 147.41 186.728 142.496 186.338 141.044C186.265 140.678 186.118 140.33 185.906 140.023C185.694 139.716 185.421 139.456 185.104 139.259C184.787 139.061 184.432 138.931 184.063 138.876C183.694 138.822 183.317 138.843 182.956 138.94C182.596 139.037 182.259 139.206 181.967 139.439C181.674 139.671 181.433 139.961 181.257 140.29C181.081 140.619 180.975 140.981 180.945 141.354C180.914 141.726 180.961 142.1 181.081 142.454Z" fill="black"/>
<path opacity="0.1" d="M188.571 158.411C188.571 158.411 193.377 146.565 202.353 142.171C206.131 140.35 209.216 137.353 211.145 133.629C212.047 131.856 212.785 130.003 213.349 128.095" stroke="#535461" stroke-width="0.986419" stroke-miterlimit="10"/>
<path opacity="0.1" d="M218.986 125.293C218.05 126.469 213.208 128.19 213.208 128.19C213.208 128.19 213.79 123.077 214.726 121.909C215.191 121.393 215.835 121.073 216.527 121.016C217.219 120.958 217.907 121.166 218.451 121.599C218.995 122.031 219.353 122.655 219.453 123.342C219.552 124.029 219.386 124.729 218.987 125.298L218.986 125.293Z" fill="#6C63FF"/>
<path opacity="0.1" d="M217.327 134.608C215.902 135.087 210.905 133.895 210.905 133.895C210.905 133.895 214.169 129.927 215.594 129.448C216.263 129.271 216.975 129.354 217.585 129.683C218.195 130.011 218.658 130.559 218.878 131.216C219.099 131.872 219.061 132.588 218.773 133.218C218.485 133.848 217.968 134.345 217.327 134.608Z" fill="#6C63FF"/>
<path opacity="0.1" d="M208.317 145.627C206.846 145.322 203.132 141.77 203.132 141.77C203.132 141.77 207.953 139.992 209.425 140.297C210.092 140.483 210.663 140.915 211.022 141.506C211.382 142.097 211.504 142.802 211.363 143.48C211.222 144.157 210.829 144.755 210.264 145.154C209.698 145.552 209.003 145.721 208.317 145.626V145.627Z" fill="#6C63FF"/>
<path opacity="0.1" d="M199.623 152.416C198.121 152.363 193.86 149.491 193.86 149.491C193.86 149.491 198.312 146.924 199.814 146.977C200.502 147.047 201.138 147.376 201.593 147.898C202.048 148.42 202.287 149.095 202.263 149.786C202.239 150.478 201.953 151.134 201.462 151.623C200.972 152.111 200.315 152.395 199.623 152.416Z" fill="#6C63FF"/>
<path opacity="0.1" d="M206.25 130.566C206.442 132.058 209.696 136.033 209.696 136.033C209.696 136.033 211.839 131.362 211.648 129.871C211.625 129.499 211.525 129.135 211.355 128.803C211.186 128.47 210.95 128.176 210.662 127.939C210.374 127.701 210.041 127.525 209.682 127.422C209.324 127.318 208.948 127.29 208.578 127.337C208.208 127.385 207.851 127.508 207.531 127.699C207.21 127.89 206.932 128.145 206.714 128.447C206.496 128.75 206.342 129.094 206.262 129.459C206.182 129.823 206.178 130.2 206.25 130.566Z" fill="#6C63FF"/>
<path opacity="0.1" d="M196.185 138.639C196.814 140.002 201.109 142.823 201.109 142.823C201.109 142.823 201.757 137.725 201.128 136.362C200.798 135.752 200.248 135.292 199.591 135.073C198.933 134.854 198.217 134.894 197.588 135.184C196.959 135.474 196.464 135.993 196.203 136.635C195.942 137.277 195.936 137.994 196.185 138.641V138.639Z" fill="#6C63FF"/>
<path opacity="0.1" d="M187.478 147.843C187.867 149.295 191.625 152.8 191.625 152.8C191.625 152.8 193.125 147.886 192.735 146.434C192.512 145.778 192.048 145.233 191.437 144.907C190.827 144.581 190.115 144.5 189.447 144.679C188.779 144.858 188.203 145.285 187.838 145.872C187.472 146.46 187.344 147.164 187.478 147.843Z" fill="#6C63FF"/>
</g>
<path opacity="0.1" d="M38.0199 107.288C40.9789 119.935 47.2429 130.868 57.1426 136.167C77.7159 147.18 124.114 141.501 158.742 134.974C176.239 131.689 192.121 122.611 203.831 109.202L38.0199 107.288Z" fill="#6C63FF"/>
<path opacity="0.1" d="M219.608 47.757H200.608C200.172 47.757 199.755 47.5839 199.447 47.276C199.139 46.968 198.966 46.5502 198.966 46.1147C198.966 45.6791 199.139 45.2614 199.447 44.9534C199.755 44.6454 200.172 44.4724 200.608 44.4724H203.893C203.457 44.4724 203.039 44.2994 202.731 43.9914C202.423 43.6834 202.25 43.2657 202.25 42.8301C202.25 42.3946 202.423 41.9768 202.731 41.6689C203.039 41.3609 203.457 41.1878 203.893 41.1878H201.547C201.112 41.1878 200.694 41.0148 200.386 40.7068C200.078 40.3988 199.905 39.9811 199.905 39.5456C199.905 39.11 200.078 38.6923 200.386 38.3843C200.694 38.0763 201.112 37.9033 201.547 37.9033H211.464C209.263 36.8806 206.691 36.1528 203.729 35.771C176.689 32.2972 167.035 34.5949 163.629 36.9641C159.427 39.8788 154.74 42.023 149.731 43.056C133.045 46.4939 101.845 50.6359 73.5653 41.7265C59.5101 37.2948 49.0632 44.7809 42.8026 57.2851H222.906C222.671 53.6511 221.967 50.2967 220.675 47.3581C220.379 47.6148 220 47.7564 219.608 47.757Z" fill="#6C63FF"/>
<path opacity="0.1" d="M36.4074 80.8906C35.678 88.2464 35.9262 95.6664 37.1455 102.957L203.961 109.057C208.604 103.716 212.503 97.7698 215.551 91.3818L36.4074 80.8906ZM102.385 96.6316H99.1004C99.536 96.6316 99.9537 96.8047 100.262 97.1126C100.57 97.4206 100.743 97.8383 100.743 98.2739C100.743 98.7095 100.57 99.1272 100.262 99.4352C99.9537 99.7432 99.536 99.9162 99.1004 99.9162H80.1004C79.6649 99.9162 79.2471 99.7432 78.9392 99.4352C78.6312 99.1272 78.4581 98.7095 78.4581 98.2739C78.4581 97.8383 78.6312 97.4206 78.9392 97.1126C79.2471 96.8047 79.6649 96.6316 80.1004 96.6316H83.385C82.9494 96.6316 82.5317 96.4586 82.2237 96.1506C81.9157 95.8426 81.7427 95.4249 81.7427 94.9893C81.7427 94.5538 81.9157 94.1361 82.2237 93.8281C82.5317 93.5201 82.9494 93.3471 83.385 93.3471H81.0396C80.604 93.3471 80.1863 93.174 79.8783 92.8661C79.5703 92.5581 79.3973 92.1403 79.3973 91.7048C79.3973 91.2692 79.5703 90.8515 79.8783 90.5435C80.1863 90.2355 80.604 90.0625 81.0396 90.0625H100.04C100.475 90.0625 100.893 90.2355 101.201 90.5435C101.509 90.8515 101.682 91.2692 101.682 91.7048C101.682 92.1403 101.509 92.5581 101.201 92.8661C100.893 93.174 100.475 93.3471 100.04 93.3471H102.385C102.821 93.3471 103.238 93.5201 103.546 93.8281C103.854 94.1361 104.027 94.5538 104.027 94.9893C104.027 95.4249 103.854 95.8426 103.546 96.1506C103.238 96.4586 102.821 96.6316 102.385 96.6316Z" fill="#6C63FF"/>
<path opacity="0.1" d="M222.915 57.3993L40.7914 61.831C38.5772 67.5257 37.1165 73.9636 36.4347 80.6367H219.724C220.921 76.7167 221.806 72.7083 222.371 68.649C222.917 64.7269 223.135 60.9327 222.915 57.3993ZM73.4086 71.9165H70.124C70.5596 71.9165 70.9773 72.0895 71.2853 72.3975C71.5933 72.7055 71.7663 73.1232 71.7663 73.5587C71.7663 73.9943 71.5933 74.412 71.2853 74.72C70.9773 75.028 70.5596 75.201 70.124 75.201H51.124C50.6885 75.201 50.2707 75.028 49.9628 74.72C49.6548 74.412 49.4817 73.9943 49.4817 73.5587C49.4817 73.1232 49.6548 72.7055 49.9628 72.3975C50.2707 72.0895 50.6885 71.9165 51.124 71.9165H54.4086C53.973 71.9165 53.5553 71.7434 53.2473 71.4355C52.9393 71.1275 52.7663 70.7097 52.7663 70.2742C52.7663 69.8386 52.9393 69.4209 53.2473 69.1129C53.5553 68.8049 53.973 68.6319 54.4086 68.6319H52.0632C51.6276 68.6319 51.2099 68.4589 50.9019 68.1509C50.5939 67.8429 50.4209 67.4252 50.4209 66.9896C50.4209 66.5541 50.5939 66.1363 50.9019 65.8284C51.2099 65.5204 51.6276 65.3473 52.0632 65.3473H71.0632C71.4987 65.3473 71.9165 65.5204 72.2244 65.8284C72.5324 66.1363 72.7055 66.5541 72.7055 66.9896C72.7055 67.4252 72.5324 67.8429 72.2244 68.1509C71.9165 68.4589 71.4987 68.6319 71.0632 68.6319H73.4086C73.8441 68.6319 74.2618 68.8049 74.5698 69.1129C74.8778 69.4209 75.0508 69.8386 75.0508 70.2742C75.0508 70.7097 74.8778 71.1275 74.5698 71.4355C74.2618 71.7434 73.8441 71.9165 73.4086 71.9165Z" fill="#6C63FF"/>
<path d="M195.997 172.286C195.997 172.286 188.402 130.628 173.919 123.868C161.647 118.136 148.375 114.271 144.602 113.223C144.038 112.315 143.387 111.465 142.657 110.685C137.499 105.301 134.4 105.401 133.899 105.468C133.661 104.4 133.491 103.318 133.388 102.229C133.373 102.059 133.357 101.9 133.344 101.731L133.388 101.709C133.357 101.387 133.33 101.055 133.306 100.712C135.412 99.5885 137.35 98.1766 139.066 96.5174C139.088 96.5907 139.106 96.664 139.13 96.739C142.847 93.5971 146.488 90.3699 150.051 87.0575C151.074 86.1013 152.148 85.0632 152.495 83.715C152.607 83.251 152.65 82.7733 152.623 82.2968C152.669 81.2741 152.427 80.2293 152.386 79.193C152.386 79.0225 152.405 78.864 152.427 78.7021C152.666 77.0061 153.845 75.6135 154.813 74.1903C157.232 70.5936 158.495 66.3439 158.432 62.0099C158.459 59.9333 158.171 57.8646 157.58 55.8738C156.825 53.3477 155.253 50.6938 152.637 50.1416C151.624 49.9285 150.573 50.0614 149.54 49.995C145.263 49.7223 142.062 46.2451 138.651 43.6969C134.489 40.6019 129.566 38.6912 124.405 38.1675C122.794 37.997 121.131 37.9851 119.599 38.4965C116.157 39.6419 114.067 43.1787 110.752 44.6326C108.301 45.7133 105.468 45.5377 102.912 46.3491C99.1054 47.5593 95.8754 51.4625 95.7902 55.4732C95.7902 55.6215 95.7902 55.7698 95.7902 55.9181C95.7902 55.9437 95.7902 55.9692 95.7902 55.9931C95.7476 58.0197 96.472 60.0839 96.5299 62.1582C96.5299 62.3457 96.5328 62.5338 96.5384 62.7224C96.5197 64.9621 96.2521 67.2087 95.4356 69.3137C94.9959 70.4472 94.43 71.7597 94.522 72.8931C94.4709 73.5869 94.6055 74.238 95.0879 74.7681L95.9112 74.042C95.6351 75.5363 95.4964 77.0529 95.497 78.5725C95.497 86.2325 98.981 93.0914 104.476 97.7072C104.508 98.2174 104.539 98.764 104.568 99.3469C104.698 101.873 104.8 105.042 104.771 108.495L96.7328 115.884L76.0675 125.259C76.0675 125.259 57.168 129.251 61.2384 155.801L63.1815 172.287H80.4361L80.3969 172.374H106.007L106.022 172.287H166.954L166.943 172.374H169.329V172.287L195.997 172.286ZM134.051 105.89C134.573 106.971 134.984 108.102 135.278 109.265C134.675 108.146 134.229 106.948 133.954 105.706L133.979 105.752L134.051 105.89ZM104.764 109.299C104.764 109.624 104.759 109.952 104.747 110.283L104.706 110.341C104.704 109.99 104.723 109.639 104.764 109.291V109.299Z" fill="url(#paint0_linear_11_410)"/>
<path d="M140.792 113.481L137.383 146.036L119.145 151.832C119.145 151.832 95.4527 147.4 101.589 134.616C105.954 125.523 105.833 109.272 105.4 100.647C105.23 97.1464 104.998 94.9016 104.998 94.9016C104.998 94.9016 136.02 67.8001 133.463 92.1744C132.969 96.8941 132.94 100.584 133.214 103.468C134.365 115.475 140.792 113.481 140.792 113.481Z" fill="#FDC2CC"/>
<path opacity="0.03" d="M140.792 113.481L137.383 146.036L119.145 151.832C119.145 151.832 95.4527 147.4 101.589 134.616C105.954 125.523 105.833 109.272 105.4 100.647C105.23 97.1464 104.998 94.9016 104.998 94.9016C104.998 94.9016 136.02 67.8001 133.463 92.1744C132.969 96.8941 132.94 100.584 133.214 103.468C134.365 115.475 140.792 113.481 140.792 113.481Z" fill="black"/>
<path opacity="0.1" d="M133.463 91.663C132.969 96.3828 132.94 100.073 133.214 102.957C128.835 105.348 123.834 106.358 118.87 105.855C113.906 105.351 109.21 103.358 105.4 100.136C105.23 96.635 104.998 94.3902 104.998 94.3902C104.998 94.3902 136.02 67.2888 133.463 91.663Z" fill="black"/>
<path d="M121.361 104.96C135.011 104.96 146.076 93.8944 146.076 80.2446C146.076 66.5948 135.011 55.5295 121.361 55.5295C107.711 55.5295 96.6459 66.5948 96.6459 80.2446C96.6459 93.8944 107.711 104.96 121.361 104.96Z" fill="#FDC2CC"/>
<path opacity="0.03" d="M121.361 104.96C135.011 104.96 146.076 93.8944 146.076 80.2446C146.076 66.5948 135.011 55.5295 121.361 55.5295C107.711 55.5295 96.6459 66.5948 96.6459 80.2446C96.6459 93.8944 107.711 104.96 121.361 104.96Z" fill="black"/>
<path opacity="0.1" d="M80.6237 146.377C80.6237 146.377 88.6348 162.74 89.0609 172.371L80.6237 146.377Z" fill="black"/>
<path opacity="0.1" d="M167.894 155.754L165.593 172.372H167.894V155.754Z" fill="black"/>
<path opacity="0.1" d="M82.4133 172.371L95.1118 143.48C95.1118 143.48 98.6912 136.662 99.5435 129.844C100.396 123.026 104.998 112.287 104.998 112.287C104.998 112.287 116.418 97.7992 121.702 99.8446C126.986 101.89 117.1 109.56 117.1 109.56C117.1 109.56 131.588 115.185 121.702 131.889C111.816 148.593 111.645 145.525 111.645 145.525L106.788 172.371H82.4133Z" fill="black"/>
<path d="M82.0725 172.371L94.771 143.48C94.771 143.48 98.3504 136.662 99.2027 129.844C99.7447 125.509 101.802 119.589 103.229 115.851C104.16 113.408 105.53 111.155 107.272 109.204C110.964 105.072 117.669 98.4094 121.361 99.8412C126.645 101.887 116.759 109.557 116.759 109.557C116.759 109.557 131.247 115.182 121.361 131.886C111.475 148.59 111.305 145.522 111.305 145.522L106.447 172.367L82.0725 172.371Z" fill="#FDC2CC"/>
<path opacity="0.15" d="M128.946 66.8643C129.228 66.8643 129.457 66.6354 129.457 66.353C129.457 66.0706 129.228 65.8416 128.946 65.8416C128.664 65.8416 128.435 66.0706 128.435 66.353C128.435 66.6354 128.664 66.8643 128.946 66.8643Z" fill="white"/>
<path opacity="0.15" d="M126.56 67.887C126.842 67.887 127.071 67.6581 127.071 67.3757C127.071 67.0933 126.842 66.8643 126.56 66.8643C126.277 66.8643 126.048 67.0933 126.048 67.3757C126.048 67.6581 126.277 67.887 126.56 67.887Z" fill="white"/>
<path opacity="0.1" d="M103.803 49.0984C106.269 48.3007 109.007 48.4729 111.373 47.4127C114.572 45.9775 116.588 42.5037 119.909 41.3788C121.388 40.8776 122.994 40.8964 124.547 41.0566C129.54 41.5763 134.295 43.4551 138.295 46.4888C141.587 48.9927 144.675 52.4068 148.802 52.6744C149.799 52.7392 150.813 52.608 151.79 52.8176C154.319 53.3596 155.834 55.9658 156.562 58.4424C157.404 61.3775 157.602 64.46 157.141 67.4785C156.68 70.4971 155.572 73.3803 153.893 75.9306C152.959 77.3282 151.82 78.6969 151.59 80.3622C151.365 81.9951 152.061 83.6877 151.655 85.2865C151.314 86.6109 150.291 87.6302 149.296 88.5694C145.859 91.8204 142.346 94.9879 138.757 98.0719C136.892 92.1471 139.628 85.7672 139.202 79.5714C139.032 77.1578 138.179 74.5226 136.05 73.384C134.058 72.3204 131.511 72.8727 129.495 71.85C127.245 70.7165 126.321 68.0319 124.62 66.174C121.722 63.0037 116.692 62.5946 112.641 64.0264C108.589 65.4581 105.277 68.4035 102.073 71.2756L96.2487 76.4999C95.1119 75.2181 95.9743 73.2511 96.5896 71.6489C97.5067 69.2472 97.7078 66.6581 97.6464 64.1082C97.597 62.0628 96.8913 60.043 96.9322 58.0521C97.0141 54.125 100.13 50.2864 103.803 49.0984Z" fill="black"/>
<path d="M103.803 48.5871C106.269 47.7894 109.007 47.9615 111.373 46.9013C114.572 45.4661 116.588 41.9924 119.909 40.8674C121.388 40.3663 122.994 40.385 124.547 40.5453C129.54 41.0649 134.295 42.9438 138.295 45.9775C141.587 48.4814 144.675 51.8955 148.802 52.1631C149.799 52.2279 150.813 52.0966 151.79 52.3063C154.319 52.8483 155.834 55.4545 156.562 57.9311C157.404 60.8662 157.602 63.9486 157.141 66.9672C156.68 69.9857 155.572 72.8689 153.893 75.4192C152.959 76.8169 151.82 78.1856 151.59 79.8509C151.365 81.4838 152.061 83.1763 151.655 84.7752C151.314 86.0996 150.291 87.1188 149.296 88.058C145.859 91.3091 142.346 94.4766 138.757 97.5606C136.892 91.6357 139.628 85.2558 139.202 79.06C139.032 76.6464 138.179 74.0113 136.05 72.8727C134.058 71.8091 131.511 72.3613 129.495 71.3386C127.245 70.2051 126.321 67.5206 124.62 65.6627C121.722 62.4923 116.692 62.0832 112.641 63.515C108.589 64.9468 105.277 67.8922 102.073 70.7642L96.2487 75.9885C95.1119 74.7067 95.9743 72.7397 96.5896 71.1375C97.5067 68.7359 97.7078 66.1467 97.6464 63.5968C97.597 61.5514 96.8913 59.5316 96.9322 57.5408C97.0141 53.6136 100.13 49.7751 103.803 48.5871Z" fill="#865A61"/>
</g>
</g>
<defs>
<linearGradient id="paint0_linear_11_410" x1="128.329" y1="172.371" x2="128.329" y2="38.0533" gradientUnits="userSpaceOnUse">
<stop stop-color="#808080" stop-opacity="0.25"/>
<stop offset="0.54" stop-color="#808080" stop-opacity="0.12"/>
<stop offset="1" stop-color="#808080" stop-opacity="0.1"/>
</linearGradient>
<clipPath id="clip0_11_410">
<rect width="375" height="812" fill="white" transform="translate(-64 -239)"/>
</clipPath>
<clipPath id="clip1_11_410">
<rect width="187" height="138.373" fill="white" transform="translate(36 34)"/>
</clipPath>
</defs>
</svg>
